# xmcd
#
# Track frame offsets:
# 150
# 12567
# 24392
# 43675
# 57520
# 71620
# 85450
# 101312
# 114072
# 133295
# 147592
# 160795
# 171285
# 180087
# 195365
# 215927
# 229570
# 243412
# 256020
# 267030
# 280182
# 297637
# 308702
# 321190
# 338740
#
# Disc length: 4729 seconds
#
# Revision: 0
# Processed by: cddbd v1.4PL0 Copyright (c) Steve Scherf et al.
# Submitted via: Audion 3.0.2 (http://www.panic.com/audion/)
#
DISCID=69127719
DTITLE=DUSTY SPRINGFIELD - The VERY BEST OF DUSTY SPRINGFIELD
DYEAR=1900
DGENRE=
TTITLE0=Spooky
TTITLE1=I Only Want To Be With You
TTITLE2=In Private
TTITLE3=I Just Don't Know What To Do With Myself
TTITLE4=Give Me Time
TTITLE5=Some Of Your Lovin'
TTITLE6=Goin' Back
TTITLE7=You Don't Have To Say You Love Me
TTITLE8=What Have I Done To Deserve This ?
TTITLE9=I Close My Eyes And Count To Ten
TTITLE10=Wishin' And Hopin'
TTITLE11=Little By Little
TTITLE12=Stay Awhile
TTITLE13=All I See Is You
TTITLE14=Nothing Has Been Proved
TTITLE15=Losing You
TTITLE16=Twenty Four Hours From Tulsa
TTITLE17=In The Middle Of Nowhere
TTITLE18=Son Of A Preacher Man
TTITLE19=Anyone Who Had A Heart
TTITLE20=If You Go Away
TTITLE21=I'll Try Anything
TTITLE22=How Can I Be Sure ?
TTITLE23=Wherever Would I Be ?
TTITLE24=The Look Of Love
EXTD=
EXTT0=
EXTT1=
EXTT2=
EXTT3=
EXTT4=
EXTT5=
EXTT6=
EXTT7=
EXTT8=
EXTT9=
EXTT10=
EXTT11=
EXTT12=
EXTT13=
EXTT14=
EXTT15=
EXTT16=
EXTT17=
EXTT18=
EXTT19=
EXTT20=
EXTT21=
EXTT22=
EXTT23=
EXTT24=
PLAYORDER=
